<?xml version="1.0" encoding="UTF-8" standalone="no"?>
<svg
   fill="none"
   viewBox="0 0 200 200"
   version="1.1"
   id="svg12"
   sodipodi:docname="firebase-logo.svg"
   width="200"
   height="200"
   xmlns:inkscape="http://www.inkscape.org/namespaces/inkscape"
   xmlns:sodipodi="http://sodipodi.sourceforge.net/DTD/sodipodi-0.dtd"
   xmlns="http://www.w3.org/2000/svg"
   xmlns:svg="http://www.w3.org/2000/svg">
  <defs
     id="defs12" />
  <sodipodi:namedview
     id="namedview12"
     pagecolor="#ffffff"
     bordercolor="#000000"
     borderopacity="0.25"
     inkscape:showpageshadow="2"
     inkscape:pageopacity="0.0"
     inkscape:pagecheckerboard="0"
     inkscape:deskcolor="#d1d1d1">
    <inkscape:page
       x="0"
       y="0"
       width="200"
       height="200"
       id="page2"
       margin="0"
       bleed="0" />
  </sodipodi:namedview>
  <g
     id="g12"
     transform="translate(19.714041,0.96991154)">
    <path
       d="m 51.2275,191.109 c 8.1756,3.29 17.0452,5.243 26.3582,5.568 12.6039,0.44 24.5893,-2.166 35.3043,-7.116 -12.849,-5.048 -24.4857,-12.43 -34.4171,-21.609 -6.4377,10.308 -15.9594,18.449 -27.2454,23.157 z"
       fill="#ff9100"
       id="path9" />
    <path
       d="M 78.4711,167.955 C 55.8006,146.988 42.0477,116.641 43.21,83.3558 c 0.0378,-1.0809 0.0948,-2.1611 0.1615,-3.241 -4.0602,-1.0501 -8.299,-1.6909 -12.6612,-1.8432 -6.244,-0.2181 -12.2908,0.5563 -17.9995,2.1639 C 6.659,91.0365 3.00696,103.2 2.552,116.228 c -1.17415,33.624 19.1734,63.003 48.6737,74.884 11.286,-4.708 20.8074,-12.84 27.2454,-23.157 z"
       fill="#ffc400"
       id="path10" />
    <path
       d="m 78.472,167.954 c 5.2708,-8.435 8.4666,-18.324 8.8386,-28.978 0.9787,-28.026 -17.862,-52.1348 -43.9381,-58.8623 -0.0667,1.0799 -0.1238,2.1601 -0.1615,3.241 -1.1624,33.2853 12.5905,63.6323 35.261,84.5993 z"
       fill="#ff9100"
       id="path11" />
    <path
       d="M 84.3945,1.33524 C 69.5432,13.233 57.8158,28.9212 50.7205,46.9936 c -4.0622,10.3517 -6.6149,21.4711 -7.3602,33.127 26.0762,6.7275 44.9169,30.8364 43.9382,58.8624 -0.3721,10.654 -3.5772,20.533 -8.8386,28.978 9.9311,9.188 21.5681,16.561 34.4171,21.609 25.79,-11.921 44.088,-37.574 45.148,-67.916 0.686,-19.659 -6.867,-37.1796 -17.54,-51.9688 C 129.214,54.0442 84.3945,1.33524 84.3945,1.33524 Z"
       fill="#dd2c00"
       id="path12" />
  </g>
</svg>
