<?xml version="1.0" encoding="UTF-8" standalone="no"?>
<svg
   viewBox="0 0 200 200"
   version="1.1"
   id="svg1"
   sodipodi:docname="Flask.svg"
   width="200"
   height="200"
   inkscape:version="1.4 (86a8ad7, 2024-10-11)"
   xmlns:inkscape="http://www.inkscape.org/namespaces/inkscape"
   xmlns:sodipodi="http://sodipodi.sourceforge.net/DTD/sodipodi-0.dtd"
   xmlns="http://www.w3.org/2000/svg"
   xmlns:svg="http://www.w3.org/2000/svg">
  <defs
     id="defs1" />
  <sodipodi:namedview
     id="namedview1"
     pagecolor="#ffffff"
     bordercolor="#000000"
     borderopacity="0.25"
     inkscape:showpageshadow="2"
     inkscape:pageopacity="0.0"
     inkscape:pagecheckerboard="0"
     inkscape:deskcolor="#d1d1d1"
     showgrid="false"
     inkscape:zoom="2.135131"
     inkscape:cx="11.943061"
     inkscape:cy="111.23439"
     inkscape:window-width="1920"
     inkscape:window-height="991"
     inkscape:window-x="-9"
     inkscape:window-y="-9"
     inkscape:window-maximized="1"
     inkscape:current-layer="svg1">
    <inkscape:page
       x="0"
       y="0"
       width="200"
       height="200"
       id="page2"
       margin="0"
       bleed="0" />
  </sodipodi:namedview>
  <path
     fill="#010101"
     d="M 63.795146,170.29009 C 56.939729,164.24087 49.630526,158.44597 44.622669,150.28952 34.104547,135.9022 26.001217,119.22598 20.474747,101.71413 17.119968,90.324171 15.985502,78.116743 11.658324,67.162757 7.1528726,59.20613 12.436244,50.522871 20.199233,47.997822 c 3.452019,-0.744798 9.545723,-4.414293 2.204106,-1.78025 -6.579903,5.413413 -7.211963,-4.922935 -0.469993,-5.576905 4.602691,-0.690301 6.30439,-4.90477 4.732344,-8.719591 -4.943031,-3.614997 11.992928,-7.593311 3.468225,-12.988558 -8.881249,-10.7359957 12.414301,-12.8068988 7.163344,-0.599471 -1.247913,9.37356 14.877713,-1.725753 11.133974,9.101073 3.808565,5.195423 14.26186,1.180778 13.986347,8.483435 5.542677,0.43598 7.455063,5.649569 12.641194,6.049217 5.396817,2.724872 15.169433,4.886604 17.000785,11.698785 -5.348197,4.741277 -17.746291,-9.809541 -18.329731,3.342509 1.620666,19.419257 1.199293,39.419819 7.536096,57.912614 2.998232,11.19014 10.258816,20.00056 16.822512,28.72016 6.288184,8.53793 14.780474,14.55081 23.467244,19.61908 7.60093,4.01464 15.8015,6.68502 24.0993,8.35627 3.35478,-2.88836 9.30263,-13.58803 14.53738,-9.08291 0.2593,5.08643 -10.40468,10.60884 -0.50241,10.06386 5.81819,-1.9619 9.85365,5.03194 14.65082,-1.28977 4.40821,5.86756 18.34594,-3.74216 15.20185,8.22912 -4.24615,3.07002 -10.43709,1.21711 -14.69944,5.44974 -7.01749,-3.92382 -12.59258,3.506 -20.35557,2.57955 C 145.86567,189.29153 137.09787,190 128.34627,190 c -14.34289,-1.27161 -28.993714,-1.79842 -42.623514,-7.39349 -7.681957,-2.50688 -15.18564,-7.41165 -21.92761,-12.31642 z m 12.106374,5.88572 c 7.503683,3.63316 14.8453,7.46615 23.062076,8.62876 13.046364,2.03457 26.530304,5.15909 39.625284,2.30706 -5.93164,-2.99736 -12.05775,1.16261 -17.95698,-2.14357 -7.08231,1.70759 -14.68323,-0.43597 -21.878991,-1.48959 -8.184362,-4.08731 -17.016991,-6.90301 -24.682741,-12.20743 -9.578136,-3.92382 4.959237,5.03193 7.536096,5.75856 5.980257,3.81482 -6.579903,-1.9619 -8.362636,-3.54233 -5.007857,-3.16085 -5.656124,-2.48872 -0.502406,0.70847 1.037226,0.67213 2.074452,1.39876 3.160298,1.98007 z m -14.278066,-11.3173 c 7.27679,3.01552 -0.03241,-5.7404 -3.354779,-5.23176 -1.474806,-2.8702 -5.639917,-4.68678 -2.706512,-6.23087 -5.283371,2.05274 -5.542677,-7.8113 -8.022296,-6.41253 -5.591297,-1.98008 -2.171692,-8.99208 -8.832629,-13.29738 -0.599646,-4.54145 -6.612317,-8.46527 -8.524703,-15.31378 -0.842746,-3.50601 -6.79059,-13.5517 -3.144091,-4.19631 3.111678,9.01025 8.573322,16.73072 13.127393,24.43303 3.533052,7.33898 7.71437,15.00496 14.132207,19.58274 2.171692,2.36156 4.262351,5.94022 7.32541,6.66686 z m -20.95521,-25.77729 c 0.259306,-1.23528 1.328946,2.65221 0,0 z M 70.32643,168.4735 c 1.620666,-0.79929 -2.317553,-1.01728 0,0 z m 3.954424,1.61676 c -0.405166,-2.23439 -1.798939,1.25344 0,0 z m 4.943031,2.30706 c 2.349966,-2.50688 -3.630291,-1.58043 0,0 z m 8.459876,5.28625 c 1.442393,-2.36155 -4.570277,-0.89012 0,0 z m -16.255279,-12.6979 c 3.646499,-2.65221 -4.716137,-0.0363 0,0 z m 3.711325,2.0709 c -0.113446,-1.39877 -1.328946,0.61764 0,0 z m 18.524212,12.95223 c 2.982025,2.10723 17.389751,4.61411 8.362641,0.87196 -1.50722,0.36331 -16.741484,-4.83211 -8.362641,-0.87196 z M 64.248933,154.3405 c -0.29172,-1.39877 -4.618898,-1.54409 0,0 z m 8.621942,5.6314 c 2.252726,-1.74391 -4.651311,-1.34427 0,0 z m 7.260583,4.9956 c 3.208919,-1.36243 -5.234751,-1.36243 0,0 z m -19.39937,-14.91413 c 3.500638,2.99736 14.099793,0.38148 5.348197,-1.79842 -3.970631,-2.37972 -12.949121,-3.99648 -6.83921,1.4351 z m 24.309988,16.63988 c 1.458599,-2.77936 -6.10991,-1.59859 0,0 z m -7.390237,-6.59419 c 8.54091,2.70671 -7.179549,-6.06738 -2.106865,-0.99912 l 1.134466,0.58131 z m 14.812887,9.59155 c 8.087124,0.0908 -7.309203,-1.23527 0,0 z M 57.620409,144.80345 c -0.307927,-1.68942 -1.993419,0.14532 0,0 z m 48.522741,33.49776 c 0.22689,-3.05186 -2.62548,2.27073 0,0 z M 71.428482,154.286 c -0.486199,-1.59859 -2.528238,-0.0727 0,0 z M 58.398329,143.74983 c 4.635104,-0.30882 -6.369217,-2.28889 0,0 z M 42.937176,132.55969 c -0.58344,-2.50688 -5.056478,-4.48696 0,0 z M 83.502443,161.407 c -0.842746,-1.08995 -0.405166,0.23616 0,0 z m 25.249977,17.36652 c -0.081,-1.65309 -1.37756,0.63581 0,0 z M 81.265924,158.82746 c 0.453787,-2.14357 -3.954424,-0.65397 0,0 z M 62.4662,145.45742 c 3.452018,-0.41782 -5.542677,-2.61588 0,0 z m 31.813672,22.16229 c 5.380614,-2.39789 -5.250958,-1.16261 0,0 z M 77.732873,155.0308 c 6.20715,0.89013 -7.390237,-4.74128 -1.36136,-0.50864 z m 21.571063,14.8778 c 5.801984,-3.88748 3.889604,9.10108 9.837444,1.08995 5.86681,-4.79577 -5.07268,5.94022 2.15549,0.8538 5.23475,-3.92382 12.94912,1.85291 17.82732,3.74215 3.50064,-0.19982 6.92025,3.39701 10.51812,1.21711 6.92025,-2.08906 -13.54876,-3.10635 -8.18436,-6.81218 -6.3368,2.07091 -11.02053,-2.47055 -14.13221,-7.012 -7.11472,-1.83475 -15.33149,-5.90389 -18.880757,-12.97039 -1.442393,-2.65221 2.090667,0.38148 -1.247913,-3.96015 -4.278558,-4.26897 -6.417837,-9.11924 -9.286415,-14.31466 -3.435812,-2.05274 -3.840979,-8.10196 -4.181318,-0.19983 0.03241,-4.97743 -4.148905,-8.33811 -5.169925,-6.93934 -0.01621,-4.79577 4.473038,-2.39789 1.328946,-5.94022 -0.680679,-4.97743 -2.900992,-10.15469 -3.565465,-15.76793 -1.037226,-2.7067 -0.14586,-8.501596 -3.549258,-2.37972 -1.231706,6.4852 -0.405166,-7.956624 1.523426,-3.19718 2.528239,-4.850273 -0.907573,-4.287133 -1.053433,-3.614997 1.653079,-4.105475 1.037226,-9.918535 -0.43758,-7.702306 0.87516,-4.34163 1.393773,-15.985917 -1.312739,-13.915014 1.636873,-4.541454 3.111679,-20.781692 -4.003045,-14.58715 -2.884785,0.0545 -7.860229,1.162613 -10.226402,2.488717 7.390237,4.55962 -0.745506,1.653089 -3.759944,0.926457 -0.38896,4.232635 -3.370985,2.397887 -7.098517,2.434219 5.947844,0.817462 -2.900992,6.81218 -6.30439,4.486956 -4.440625,2.379722 3.824771,8.301778 0.08103,10.136525 0.453786,2.761204 -6.79059,-0.99912 -6.223357,5.377081 -4.294765,-2.034571 -0.58344,7.556979 1.555839,4.323464 7.309203,2.216229 5.153718,7.284492 5.331991,12.08027 -1.199293,2.797528 -5.883017,-6.576028 -1.037226,-6.140048 -3.824772,-6.957508 -4.229938,-2.506883 -7.390237,0.708466 -0.729299,0.236156 8.087123,4.595952 2.544446,6.75768 4.878204,0.85379 5.024064,5.6314 6.01267,8.64693 2.933406,3.41517 2.333759,-3.77849 5.834397,0.32698 -2.220312,-3.66949 -11.749827,-10.318178 -4.084078,-8.19278 -0.04862,-3.687658 -1.393772,-6.666851 0.9724,-6.594187 2.333759,-4.723112 -2.447206,11.662447 2.803752,5.649567 1.458599,-0.70847 1.815146,-4.723111 4.424418,0.38148 3.792358,4.17814 1.377566,7.21183 -3.986838,3.37884 0.956193,3.65133 7.163343,4.9411 5.996464,10.64517 1.231706,5.01377 2.965818,3.16085 4.473037,2.8702 1.183087,4.86844 1.84756,1.28977 1.912386,-1.03545 5.413024,1.30794 4.148905,4.8866 5.834397,7.39348 3.727532,1.88925 -5.33199,-12.78873 1.06964,-4.41429 6.74197,6.81218 2.528239,9.66421 -3.516845,8.57427 3.824771,-0.34515 5.056477,5.79489 9.837442,5.5769 4.359591,2.32523 7.32541,11.26281 -0.19448,7.53881 -2.609272,-2.63404 -11.847068,-5.88572 -4.294765,-0.87195 6.968864,3.61499 12.495334,5.77672 19.221098,10.31818 4.797171,3.85115 6.88783,8.24728 8.702976,9.11924 -4.035458,2.16173 -12.171201,-1.72576 -6.126117,-2.9247 -3.776152,-0.76296 -8.00609,-2.90653 -4.392005,2.36156 3.063059,2.8702 10.874668,2.57954 12.284648,2.88836 -1.183087,2.9247 -3.225126,3.16085 0.04862,3.37884 -3.646499,2.21623 1.166882,2.56138 1.507222,3.81482 z m -7.455063,-23.61556 c -2.220313,-2.59771 -2.787546,-7.46615 -0.38896,-3.23351 1.215499,0.54497 3.938218,7.95663 0.38896,3.23351 z m 24.293787,17.29386 c 1.37756,-0.10899 0.0324,1.18078 0,0 z M 88.348234,139.91684 c -0.09724,-3.94198 0.794127,3.03369 0,0 z m -2.414792,-3.65133 c -2.803752,-6.03105 3.516845,1.72576 0,0 z m -29.269226,-22.6346 c 1.636873,-0.49048 0.810333,3.14269 0,0 z m 23.288969,14.15117 c 1.004813,-4.23264 1.183086,3.5605 0,0 z M 63.503426,114.95701 c -1.150673,-2.34339 2.430999,2.19807 0,0 z m 14.116,5.06827 c -2.641685,-6.63053 1.879973,-3.63317 0.58344,1.08995 z M 53.277024,101.8413 c -1.183086,-2.179898 -3.127885,-8.574267 -2.512032,-10.518009 0.567233,3.179017 6.028877,13.678859 2.674099,4.34163 -3.695118,-7.811301 4.424418,2.543211 5.267164,4.486949 0.38896,1.94375 -2.285139,-0.526798 -0.469993,4.01465 -3.306158,-5.177258 -1.944799,2.8702 -4.959238,-2.32522 z m -7.519889,-5.813063 c 0.307926,-5.068262 1.717905,3.469675 0,0 z m 3.370985,1.307939 c 1.620666,-3.832987 2.738925,5.322584 0,0 z m -8.135743,-7.066502 c -2.803752,-3.124521 -4.829584,-5.994719 0.129653,-1.943743 1.912386,0.09083 -4.246144,-6.539693 0.453787,-2.107234 4.959237,1.017285 2.447205,9.101073 -0.58344,4.050977 z m 4.278558,-0.127161 c 1.620666,-1.798416 0.858953,1.78025 0,0 z m 2.625479,0.944622 c -2.463413,-5.177257 2.998232,2.179898 0,0 z m -5.218545,-5.595071 c -8.135742,-8.120119 10.226402,4.250801 1.328946,1.507763 z m 23.321383,15.186616 c -3.533052,-2.361548 -0.939987,-16.676213 0.259306,-6.884838 3.419605,-1.235276 -0.19448,5.0501 2.366172,4.9956 -0.388959,3.960148 -1.539632,5.395248 -2.625478,1.889238 z m 8.638149,5.72224 c 0.34034,-4.32347 0.7293,2.94286 0,0 z m -1.507219,-1.67126 c 0.388959,-1.83475 0.04862,2.1799 0,0 z M 44.266122,82.821689 c -5.234751,-8.083787 15.201846,8.192783 3.354778,2.052738 -1.247912,-0.381483 -2.738925,-0.508643 -3.354778,-2.052738 z m 16.628032,9.864038 c -0.502406,-6.812181 1.102053,1.12628 0,0 z m 12.608781,9.082903 c 0.972399,-3.887478 0.08103,2.56138 0,0 z M 45.076455,79.733501 c 3.111678,-0.744798 12.884294,6.12188 3.905805,1.961908 -1.004813,-1.253441 -3.127885,-0.690301 -3.905805,-1.961908 z m 26.692367,14.914134 c 0.324133,-6.975673 1.863766,-4.159972 0.01621,0.99912 z M 47.377801,77.299282 c 1.264119,-2.089069 -3.370986,-9.409892 0.664473,-2.634043 1.750319,1.544094 5.04027,2.597711 2.123072,3.25168 4.602691,4.541454 -1.102053,1.235276 -2.787545,-0.617637 z m 23.078282,15.168455 c 0.875159,-7.938461 0.761713,4.650449 0,0 z M 44.736115,69.978458 c 0.9724,-0.472311 0.518613,1.4351 0,0 z m 6.012671,4.014645 c 1.555839,-3.651328 2.868578,4.050977 0,0 z m 16.968372,10.572505 c 0,-1.398768 0.324133,2.034571 0,0 z m -0.9724,-2.43422 c -2.349966,-6.521527 2.187899,3.451505 0,0 z m -1.442393,-4.268966 c -0.405166,-2.688541 1.345153,3.378842 0,0 z m 2.349966,-4.287132 c -1.620666,-3.197184 2.042039,-14.078507 2.447205,-7.320824 -1.701699,5.249921 -0.486199,8.192783 0.696887,1.144447 2.204105,-5.55874 -0.469993,10.93582 -3.144092,6.176377 z m 2.414792,-16.185741 c 0.713093,-0.962789 0.162067,1.180778 0,0 z m -4.035458,89.230481 c -0.956193,-0.94462 0.113447,0.59947 0,0 z m 8.314016,4.72311 c 4.635104,1.34427 4.602691,-0.79929 0.421373,-1.4351 -2.252725,-2.34339 -9.351242,-4.8321 -2.998232,-0.29065 0.43758,1.18078 1.766526,1.14445 2.576859,1.72575 z M 57.912129,139.09938 c 2.544445,2.14357 9.610549,6.03105 3.630291,0.81746 2.009626,-2.61587 -3.857184,-4.01464 -1.912385,-5.77673 -4.959238,-3.397 -3.905805,-3.08818 -0.43758,-2.97919 -5.947844,-2.97919 0.858953,-2.7612 0.53482,-4.28713 -2.301346,-0.50864 -11.393282,-4.54146 -6.045084,0.32698 -5.445438,-3.10635 -1.296533,1.16262 -2.949612,0.70847 -5.575091,-1.70759 4.959238,4.75944 -0.87516,3.14269 3.192712,2.83386 8.58953,7.26632 1.345153,2.99736 -0.92378,1.54409 5.202338,3.88748 6.709557,5.05009 z m 8.702976,5.61324 c 10.582948,3.81482 -5.186131,-4.68678 0,0 z m 44.568315,30.24608 c 0.12965,-2.36156 -1.4586,2.01641 0,0 z m 4.57028,2.16173 c 2.4472,-2.65221 0.0972,4.23264 4.05166,-0.65397 0.0486,-3.48783 -0.11344,-5.55874 -4.53786,-1.30794 -1.2155,0.76297 -1.76653,3.97832 0.4862,1.96191 z m -72.686871,-51.1731 c -0.761713,-3.30618 -5.267164,-3.28801 0,0 z m 4.878205,3.59683 c -1.815146,-3.37884 -6.482664,-3.05185 0,0 z m 27.826833,18.80162 c 2.722719,2.70671 12.479127,1.98008 3.289952,0.32699 -1.345153,-2.25256 -8.621943,-1.70759 -3.289952,-0.32699 z m 38.247723,26.46759 c 4.16511,-3.92381 -4.05167,1.76209 0,0 z m 8.68677,6.70319 c 0.0324,-1.25344 -1.79894,0.54497 0,0 z m 0.0162,-1.76208 c 4.63511,-5.50425 -4.48924,0.32698 0,0 z M 31.025282,114.66636 c -3.938218,-6.30354 -2.447206,-9.1374 -6.255771,-14.2965 -0.729299,-3.941975 -6.531283,-12.879556 -2.998232,-3.415167 3.225126,5.540567 4.181318,14.114837 9.254003,17.711667 z m 90.238678,63.3442 c 8.52471,-6.17638 -3.48443,-2.68854 0,0 z m 6.49887,2.85203 c 4.27856,-4.10547 -2.6903,-0.85379 0,0 z m -86.1546,-61.89093 c 1.231706,-2.03457 -3.144092,-0.25432 0,0 z m 84.80945,59.92902 c 4.1327,-2.97919 -0.95619,-2.52505 -0.74551,0.27249 z M 70.37505,139.31737 c -0.14586,-2.0164 -2.187899,0.16349 0,0 z m 3.468225,2.2344 c -1.11826,-2.50689 -1.7017,0.38148 0,0 z m 59.202925,39.36532 c 5.29958,-4.28713 -3.20891,-0.81746 -1.10205,0.81746 z m -2.04204,-1.08995 c 4.32718,-4.05098 -4.53786,1.79841 0,0 z m 10.35606,7.72047 c 2.90099,-2.16173 -3.51685,-0.6903 0,0 z M 44.266122,117.50023 c 3.873392,0.98095 15.493566,10.69966 8.638149,0.67213 -3.516845,-1.16261 -1.409979,-10.79049 -4.991651,-9.0829 2.398586,4.50512 1.977213,6.41253 -3.079265,3.57866 -6.336804,-3.46967 -3.565465,1.70759 -2.317552,3.14269 -1.685493,0.45414 2.252725,1.65309 1.750319,1.68942 z M 26.600864,101.85946 c 0.696886,-3.215348 -6.401631,-17.711666 -3.354779,-7.266322 1.102053,2.198063 0.988607,6.339862 3.354779,7.266322 z m 32.429524,22.41662 c -1.993419,-1.87108 -0.09724,-0.27249 0,0 z m 4.910618,1.28977 c 0,-3.41517 -5.429231,-1.39877 0,0 z m 42.623514,30.10076 c -0.81033,-2.32523 -3.20892,-0.0363 0,0 z m 2.04204,1.68942 c -0.29172,-1.30794 -1.16688,0.25432 0,0 z m 16.90355,11.91677 c 1.62066,-1.34427 -2.02584,-0.16349 0,0 z M 35.417286,104.38451 c 4.651311,-2.01641 -4.975444,-1.4351 0,0 z m 67.403494,47.59443 c -0.0648,-3.37884 -2.965814,0.83563 0,0 z M 33.585934,99.588732 c 2.982025,-1.12628 -2.771339,-0.74479 0,0 z m 8.654356,4.704948 c -0.04862,-1.10811 -0.907573,0.41781 0,0 z m 105.69983,72.64509 c 3.84098,-0.87195 12.59258,2.19807 14.00256,-1.14444 -4.66752,-0.12716 -16.12563,-3.68766 -16.66045,0.83563 l 1.02102,0.18165 z M 44.995422,105.07481 c 0.08103,-3.41517 -2.366173,-0.12716 0,0 z M 22.225066,87.363143 c -1.037226,-6.503362 -3.938218,-0.980954 0,0 z m 5.429231,1.525929 c 0.06483,-2.089069 -4.975445,-1.871079 0,0 z m 3.095471,1.707586 c -0.891366,-0.799296 -0.696886,1.035452 0,0 z m 19.545231,14.042172 c 0.92378,-0.94462 -2.187899,-0.6903 0,0 z M 28.691523,86.745505 c -0.53482,-4.922935 -6.288184,-0.726632 0,0 z M 17.557548,78.643552 c -0.162067,-2.270727 -1.085846,0.853793 0,0 z m 1.653079,-1.398768 c -0.275513,-2.68854 -1.426186,0.345151 0,0 z m 9.156763,6.12188 c 3.873391,-1.707587 -7.049897,-3.524168 -0.794127,-0.326985 z m 122.50614,84.816186 c 2.47962,-2.54321 -3.14409,-0.78113 0,0 z m 14.79668,8.6106 c 0.9886,-3.28801 -2.49583,0.41781 0,0 z M 29.291169,77.989583 c 0.421373,-3.179018 -3.063058,0.635803 0,0 z M 16.277222,68.216374 c -0.696886,-4.486956 -0.599646,-12.389085 6.093704,-9.718711 -8.929869,1.99824 6.190943,12.443584 4.278558,4.196304 3.759945,0.199824 7.341616,-2.488717 5.38061,1.598591 7.406444,-0.90829 12.527748,-8.101953 19.674884,-7.102833 5.575091,-0.835628 11.652588,-1.453266 17.649052,-3.960148 4.926824,-0.399648 9.675375,-6.358035 6.98507,-9.882203 -6.725763,-0.635804 -13.77566,0.308819 -21.19831,1.961908 -8.232983,1.925576 -15.720459,5.558739 -24.034475,7.139165 -8.10333,1.21711 1.620666,3.360676 -0.696886,3.832987 -4.229938,1.634923 5.040271,2.761204 -0.551027,4.486956 -3.452018,-0.744798 -7.049896,-2.070903 -5.57509,-6.140045 -7.76299,1.12628 -14.5859944,4.741277 -8.44367,13.588029 z M 34.979706,57.534875 c 1.815146,-7.520647 9.740202,6.176377 2.982026,0.99912 -0.810333,-0.690301 -2.139279,-1.235275 -2.982026,-0.99912 z m 0.356547,-3.651329 c 2.625479,-2.179897 1.393773,1.235276 0,0 z m 3.338572,0.07266 c 0.2431,-3.451505 7.633336,1.834747 1.215499,1.235275 z m 4.554071,-2.070903 c 1.669286,-2.179898 0.4862,1.943742 0,0 z m 1.166879,-0.871959 c 2.771339,-3.742158 15.704253,-2.379722 6.239564,-0.363317 -2.528239,-2.143566 -4.473038,1.271607 -6.239564,0.363317 z m 16.887339,-2.906531 c -0.421373,-10.209188 8.395049,3.614997 0,0 z m 4.797171,-0.03633 c 1.750319,-5.140926 6.806797,-2.070903 0.810333,-1.035452 0.129653,0.544975 -0.178273,2.652209 -0.810333,1.035452 z M 27.411197,75.35554 c 5.234751,-3.596832 -5.558884,-3.124521 0,0 z m 3.873391,1.198943 c 1.831353,-2.179897 -3.986838,-0.890125 0,0 z M 19.8751,67.489742 c 2.998232,-2.579546 -3.533051,-0.980954 0,0 z M 174.4056,175.84883 c 0.081,-2.99736 -2.28514,1.34427 0,0 z m -15.70426,-12.00761 c 0.45379,-3.4515 -2.00962,0.29065 0,0 z m 20.03144,13.17022 c 4.18131,0.0182 12.6736,-1.45327 3.56546,-1.45327 -1.42619,0.23616 -8.31402,0.19983 -3.56546,1.45327 z M 34.687987,74.447249 c 3.387191,-0.254322 5.299577,-4.178138 -0.664473,-3.960148 -9.221589,-1.071783 8.135742,3.542334 -1.183087,2.21623 -1.247912,0.926456 1.766526,1.998239 1.84756,1.743918 z m 2.982025,1.689421 c -0.356547,-2.43422 -1.053433,1.289772 0,0 z m 3.533051,-10.572505 c 1.4586,-2.034571 -2.042039,-0.544974 0,0 z M 29.939435,44.49182 c 6.045084,-2.307058 14.294274,-4.886604 17.146646,1.126281 -2.900992,-3.905651 -1.16688,-7.774969 1.572046,-2.034572 3.873391,5.794895 5.81819,-2.634043 3.289951,-4.577785 2.868579,3.996479 6.142324,5.885724 1.928593,0.254321 4.586484,-6.176377 -9.172969,0.817462 -12.300854,0.744799 -1.491013,0.744798 -15.52598,3.996479 -11.636382,4.486956 z m 3.549259,-7.593311 c 3.452018,-2.90653 11.911894,1.743919 6.482663,-2.888364 -0.534819,-0.544975 -11.911894,3.506002 -6.482663,2.888364 z m 12.56016,0.581306 c 4.035459,0.108995 -1.734112,-6.067382 3.063059,-3.269846 -0.794126,-2.888365 -5.591297,-3.433339 -7.941263,-4.577786 -1.328946,2.634044 2.690306,7.883964 4.878204,7.847632 z M 35.692799,24.691082 c 1.393773,-2.107235 -2.447205,1.089949 0,0 z m 5.121305,1.380602 c 6.49887,-0.962788 -1.65308,-3.12452 -1.31274,-0.07266 z m -9.578136,-8.392607 c -4.570278,-6.703185 8.605736,1.126281 3.954425,-5.885724 -3.905805,-3.4878357 -7.66575,3.923816 -3.954425,5.885724 z M 89.92028,53.102416 c 2.090659,-4.159971 -8.654356,-5.613237 -1.409979,-1.471431 0.68068,0.254322 0.518613,1.762084 1.409979,1.471431 z"
     id="path1"
     style="stroke-width:1.71582" />
</svg>
