<?xml version="1.0" encoding="UTF-8" standalone="no"?>
<!-- Created with Inkscape (http://www.inkscape.org/) -->

<svg
   version="1.1"
   id="svg1"
   width="200"
   height="200"
   viewBox="0 0 200 200"
   sodipodi:docname="GetX.png"
   xmlns:inkscape="http://www.inkscape.org/namespaces/inkscape"
   xmlns:sodipodi="http://sodipodi.sourceforge.net/DTD/sodipodi-0.dtd"
   xmlns="http://www.w3.org/2000/svg"
   xmlns:svg="http://www.w3.org/2000/svg">
  <defs
     id="defs1" />
  <sodipodi:namedview
     id="namedview1"
     pagecolor="#ffffff"
     bordercolor="#000000"
     borderopacity="0.25"
     inkscape:showpageshadow="2"
     inkscape:pageopacity="0.0"
     inkscape:pagecheckerboard="0"
     inkscape:deskcolor="#d1d1d1" />
  <g
     inkscape:groupmode="layer"
     inkscape:label="Image"
     id="g1">
    <path
       style="fill:#6b27b0;stroke:none;stroke-width:1.1747"
       d="M 93.073477,0.54829476 C 85.742087,1.6775907 78.608377,3.9275529 72.350214,8.3194052 28.592205,39.027864 57.013753,110.89285 107.20298,103.11686 c 5.90001,-0.91411 11.82683,-3.449083 16.95539,-6.660604 C 168.17322,68.893913 143.24721,-7.1802069 93.073477,0.54829476 M 94.015437,18.674893 C 108.69741,16.038785 127.01669,22.971742 132.85847,38.601229 140.45892,58.9359 122.85087,81.643577 104.37708,84.705038 93.236247,86.551299 87.126777,75.259669 83.389247,65.947013 76.303876,48.292659 69.346103,23.104192 94.015437,18.674893 M 43.149258,96.764926 c -7.770712,1.19696 -15.023404,3.598164 -21.665226,8.223584 -24.6889863,17.19361 -28.9262608,56.66486 -8.392658,79.41702 11.627944,12.88429 27.948659,17.45061 44.187379,14.92795 C 117.21627,190.02227 102.60751,87.606297 43.149258,96.764926 m 104.558282,0 c -7.6547,1.1791 -15.16469,3.376574 -21.66524,8.036034 -44.105163,31.61366 -14.6816,102.35302 35.79473,94.53252 C 221.4909,190.09108 206.9493,87.639647 147.70754,96.764926 M 45.03319,114.85478 c 14.870467,-2.10347 33.330827,6.77168 38.033347,23.00151 5.72681,19.76499 -11.663241,41.06305 -29.555649,43.3639 C 40.898095,182.84212 35.02878,171.30611 31.532399,160.13802 25.898752,142.14311 21.48133,118.18625 45.03319,114.85478 m 104.55828,0 c 33.98931,-4.74912 53.17056,39.82717 22.60719,60.60039 -4.17861,2.84009 -9.18686,5.12089 -14.12949,5.76502 -27.73316,3.61423 -38.47049,-62.17471 -8.4777,-66.36541 z"
       id="path1" />
  </g>
</svg>
