<?xml version="1.0" encoding="UTF-8" standalone="no"?>
<svg
   viewBox="0 0 200 200"
   version="1.1"
   id="svg4"
   sodipodi:docname="Google-flutter-logo.svg"
   width="200"
   height="200"
   inkscape:version="1.4 (86a8ad7, 2024-10-11)"
   xmlns:inkscape="http://www.inkscape.org/namespaces/inkscape"
   xmlns:sodipodi="http://sodipodi.sourceforge.net/DTD/sodipodi-0.dtd"
   xmlns="http://www.w3.org/2000/svg"
   xmlns:svg="http://www.w3.org/2000/svg">
  <defs
     id="defs4" />
  <sodipodi:namedview
     id="namedview4"
     pagecolor="#ffffff"
     bordercolor="#000000"
     borderopacity="0.25"
     inkscape:showpageshadow="2"
     inkscape:pageopacity="0.0"
     inkscape:pagecheckerboard="0"
     inkscape:deskcolor="#d1d1d1"
     showgrid="false"
     inkscape:zoom="1.5284785"
     inkscape:cx="132.15757"
     inkscape:cy="52.012509"
     inkscape:window-width="1920"
     inkscape:window-height="991"
     inkscape:window-x="-9"
     inkscape:window-y="-9"
     inkscape:window-maximized="1"
     inkscape:current-layer="svg4">
    <inkscape:page
       x="0"
       y="0"
       width="200"
       height="200"
       id="page2"
       margin="0"
       bleed="0" />
  </sodipodi:namedview>
  <g
     id="g4"
     transform="matrix(0.62504687,0,0,0.69647631,30.451035,5.4280944)">
    <path
       d="M 136.28,4.09 217.95,4 80.93,140.95 45.22,176.46 4.59,135.78 Z m -0.76,122.28 c 1.06,-1.4 3.01,-0.71 4.49,-0.89 l 77.87,0.02 -70.97,70.9 -40.84,-40.59 z"
       fill="#44d1fd"
       id="path1" />
    <path
       fill="#1fbcfd"
       d="m 65.36,196.47 40.71,-40.66 40.84,40.59 0.17,0.18 -41,40.62 z"
       id="path3" />
    <path
       fill="#08589c"
       d="m 106.08,237.2 41,-40.62 70.83,70.9 c -26.68,0.06 -53.35,-0.02 -80.02,0.04 -1.52,0.34 -2.46,-1.05 -3.43,-1.91 z"
       id="path4" />
  </g>
</svg>
