<?xml version="1.0" encoding="UTF-8" standalone="no"?>
<!-- Generator: Adobe Illustrator 17.1.0, SVG Export Plug-In . SVG Version: 6.00 Build 0)  -->

<svg
   version="1.1"
   id="Layer_1"
   x="0px"
   y="0px"
   viewBox="0.6 1067.9 199.99999 200"
   enable-background="new 0.6 1067.9 90.3 109.1"
   xml:space="preserve"
   sodipodi:docname="PyTorch_logo_icon.svg"
   width="200"
   height="200"
   inkscape:version="1.4 (86a8ad7, 2024-10-11)"
   xmlns:inkscape="http://www.inkscape.org/namespaces/inkscape"
   xmlns:sodipodi="http://sodipodi.sourceforge.net/DTD/sodipodi-0.dtd"
   xmlns="http://www.w3.org/2000/svg"
   xmlns:svg="http://www.w3.org/2000/svg"><defs
   id="defs1" /><sodipodi:namedview
   id="namedview1"
   pagecolor="#ffffff"
   bordercolor="#000000"
   borderopacity="0.25"
   inkscape:showpageshadow="2"
   inkscape:pageopacity="0.0"
   inkscape:pagecheckerboard="0"
   inkscape:deskcolor="#d1d1d1"
   showgrid="false"
   inkscape:zoom="2.5050117"
   inkscape:cx="82.235145"
   inkscape:cy="96.007536"
   inkscape:window-width="1920"
   inkscape:window-height="991"
   inkscape:window-x="-9"
   inkscape:window-y="-9"
   inkscape:window-maximized="1"
   inkscape:current-layer="Layer_1"><inkscape:page
     x="0"
     y="0"
     width="199.99998"
     height="200"
     id="page2"
     margin="0"
     bleed="0" /></sodipodi:namedview>
<g
   id="g1"
   transform="matrix(1.8318364,0,0,1.6876003,16.69042,-725.98834)">
	<path
   fill="#ee4c2c"
   d="m 77.6,1099.6 -8.1,8.1 c 13.3,13.3 13.3,34.7 0,47.8 -13.3,13.3 -34.7,13.3 -47.8,0 -13.3,-13.3 -13.3,-34.7 0,-47.8 v 0 l 21.1,-21.1 3,-3 v 0 -15.9 L 14,1099.5 c -17.7,17.7 -17.7,46.3 0,64 17.7,17.7 46.3,17.7 63.7,0 17.6,-17.7 17.6,-46.1 -0.1,-63.9 z"
   id="path1" />
	<circle
   fill="#ee4c2c"
   cx="61.700001"
   cy="1091.8"
   r="5.9000001"
   id="circle1" />
</g>
</svg>
