<?xml version="1.0" encoding="UTF-8" standalone="no"?>
<!-- Generator: Adobe Illustrator 19.2.1, SVG Export Plug-In . SVG Version: 6.00 Build 0)  -->

<svg
   version="1.1"
   id="layer"
   x="0px"
   y="0px"
   viewBox="0 0 200 200"
   xml:space="preserve"
   sodipodi:docname="roboflow-inc-logo-vector.svg"
   width="200"
   height="200"
   inkscape:version="1.4 (86a8ad7, 2024-10-11)"
   xmlns:inkscape="http://www.inkscape.org/namespaces/inkscape"
   xmlns:sodipodi="http://sodipodi.sourceforge.net/DTD/sodipodi-0.dtd"
   xmlns="http://www.w3.org/2000/svg"
   xmlns:svg="http://www.w3.org/2000/svg"><defs
   id="defs2" /><sodipodi:namedview
   id="namedview2"
   pagecolor="#ffffff"
   bordercolor="#000000"
   borderopacity="0.25"
   inkscape:showpageshadow="2"
   inkscape:pageopacity="0.0"
   inkscape:pagecheckerboard="0"
   inkscape:deskcolor="#d1d1d1"
   inkscape:zoom="1.1855828"
   inkscape:cx="326.42173"
   inkscape:cy="287.20052"
   inkscape:window-width="1920"
   inkscape:window-height="991"
   inkscape:window-x="-9"
   inkscape:window-y="-9"
   inkscape:window-maximized="1"
   inkscape:current-layer="layer"><inkscape:page
     x="0"
     y="0"
     width="200"
     height="200"
     id="page2"
     margin="0"
     bleed="0" /></sodipodi:namedview>
<style
   type="text/css"
   id="style1">
	.st0{fill-rule:evenodd;clip-rule:evenodd;fill:#6706CE;}
	.st1{fill-rule:evenodd;clip-rule:evenodd;fill:#FFFFFF;}
</style>

<g
   id="g2"
   transform="matrix(1.3368263,0,0,1.3368263,-18.175445,-329.12124)"><path
     class="st0"
     d="m 155.2,321 c 0,36.9 -29.9,66.8 -66.8,66.8 -36.9,0 -66.8,-29.9 -66.8,-66.8 0,-36.9 29.9,-66.8 66.8,-66.8 36.9,0 66.8,29.9 66.8,66.8"
     id="path1"
     sodipodi:nodetypes="csssc" /><path
     class="st1"
     d="m 83.8,313.8 c -9.8,7.6 -22.2,15.3 -23.5,27.6 -0.5,4.9 2,12.8 4.9,18 0.2,0.4 0.3,0.8 0.3,1.3 -0.1,1.3 -1.1,2.3 -2.4,2.3 -0.9,0 -1.7,-0.5 -2.5,-1 -3.6,-2.2 -6.9,-5 -9.5,-8.2 -0.8,-1 -1.5,-2 -2.1,-3 -0.6,-1 -1.1,-2.1 -1.6,-3.2 -0.5,-1.1 -0.8,-2.2 -1.1,-3.3 -0.3,-1.1 -0.5,-2.2 -0.7,-3.4 -0.1,-1.1 -0.2,-2.3 -0.2,-3.4 0,-1.2 0.1,-2.3 0.3,-3.5 0.2,-1.2 0.4,-2.3 0.7,-3.5 3.7,-13.9 18.8,-25.4 30.6,-26.9 10.3,-1.2 13,5.4 6.8,10.2 m 49.2,21.4 c -0.6,-1.5 -2.3,-2.4 -3.9,-2.3 -1.1,0.1 -2,0.7 -2.8,1.5 -1.2,1.1 -2.1,2.6 -3,4 -1.1,1.6 -2.2,3.1 -3.4,4.6 -2.4,2.9 -5.2,5.5 -8.4,7.5 -5.5,3.3 -10.5,4.9 -16.5,1.9 -4.4,-3.5 -2.9,-7.7 0.7,-11.1 6.3,-5.8 13.8,-9.9 19.7,-16.1 5.6,-5.9 10.5,-13.2 11.6,-21.3 0.3,-2.3 0.3,-4.6 0,-6.9 -1.7,-10.8 -11.5,-17.6 -21.3,-20.5 -12.5,-3.7 -26.3,-2.6 -38.1,2.9 -4.9,2.3 -9.4,5.3 -13.3,8.9 -1.7,1.6 -3.4,3.3 -4.9,5.2 -2.5,3 -5.3,6.4 -5.8,10.4 -0.3,2.4 1.9,4.1 4.2,3.8 1.6,-0.2 2.9,-1.1 4.1,-2.2 1.3,-1.2 2.5,-2.5 3.8,-3.7 3.9,-3.7 8,-7.2 12.9,-9.5 6.3,-2.9 13.3,-4.4 20.2,-3.6 7,0.7 15.5,3.9 18.1,11.1 2.7,7.6 -3.1,15 -8.3,19.8 -8.5,7.9 -24.7,15.9 -22.9,29.9 1,7.5 6.3,13.8 13.2,16.7 11.9,4.9 24.9,-1.1 33.1,-10.3 2.8,-2.9 6.8,-8 10.4,-15.5 0.7,-1.6 1.2,-3.6 0.6,-5.2"
     id="path2" /></g>
</svg>
