<?xml version="1.0" encoding="UTF-8" standalone="no"?>
<svg
   width="200"
   height="200"
   viewBox="0 0 200 200"
   fill="none"
   version="1.1"
   id="svg6"
   sodipodi:docname="UltralyticsYOLO_logo.svg"
   inkscape:version="1.4 (86a8ad7, 2024-10-11)"
   xmlns:inkscape="http://www.inkscape.org/namespaces/inkscape"
   xmlns:sodipodi="http://sodipodi.sourceforge.net/DTD/sodipodi-0.dtd"
   xmlns="http://www.w3.org/2000/svg"
   xmlns:svg="http://www.w3.org/2000/svg">
  <sodipodi:namedview
     id="namedview6"
     pagecolor="#ffffff"
     bordercolor="#000000"
     borderopacity="0.25"
     inkscape:showpageshadow="2"
     inkscape:pageopacity="0.0"
     inkscape:pagecheckerboard="0"
     inkscape:deskcolor="#d1d1d1"
     inkscape:zoom="2.0704301"
     inkscape:cx="70.033758"
     inkscape:cy="85.247989"
     inkscape:window-width="1920"
     inkscape:window-height="991"
     inkscape:window-x="-9"
     inkscape:window-y="-9"
     inkscape:window-maximized="1"
     inkscape:current-layer="svg6">
    <inkscape:page
       x="0"
       y="0"
       width="200"
       height="200"
       id="page2"
       margin="0"
       bleed="0" />
  </sodipodi:namedview>
  <g
     clip-path="url(#clip0_1008_94177)"
     id="g5"
     transform="matrix(0.68249684,0,0,0.68916466,14.017001,7.1327799)">
    <mask
       id="mask0_1008_94177"
       maskUnits="userSpaceOnUse"
       x="-1"
       y="6"
       width="254"
       height="258">
      <path
         d="M 252.391,6.06781 H -0.4375 V 263.932 H 252.391 Z"
         fill="#ffffff"
         id="path1" />
    </mask>
    <g
       mask="url(#mask0_1008_94177)"
       id="g4">
      <path
         d="m 58.75,6.06851 c -32.6364,0 -59.1875,26.56329 -59.1875,59.21439 0,32.6485 26.5511,59.2131 59.1875,59.2131 32.637,0 59.188,-26.5646 59.188,-59.2131 0,-32.6511 -26.551,-59.21439 -59.188,-59.21439 z"
         fill="#0b23a9"
         id="path2" />
      <path
         d="m 125.719,191.489 c -21.32,0 -41.4648,-5.401 -59.1487,-14.883 v 26.865 c 0,32.6 26.0196,59.65 58.6047,59.965 32.903,0.318 59.772,-26.367 59.772,-59.21 v -27.645 c -17.7,9.506 -37.878,14.908 -59.228,14.908 z"
         fill="#0b23a9"
         id="path3" />
      <path
         d="m 133.466,65.2895 c -0.061,41.1915 -33.4864,74.6445 -74.8076,74.7455 -15.9399,0.041 -30.8977,-4.923 -43.1037,-13.59 21.6341,38.689 62.9154,65.069 110.1183,64.978 68.57,0.054 125.15,-55.797 126.293,-124.2977 l -0.162,-0.1466 c 0.067,-1.7068 -0.016,-0.3087 0.067,-1.7068 C 251.904,32.598 225.312,5.93101 192.815,6.04477 160.008,6.17432 133.499,32.6152 133.466,65.2895 Z"
         fill="url(#paint0_linear_1008_94177)"
         id="path4"
         style="fill:url(#paint0_linear_1008_94177)" />
    </g>
  </g>
  <defs
     id="defs6">
    <linearGradient
       id="paint0_linear_1008_94177"
       x1="71.155197"
       y1="189.328"
       x2="217.70799"
       y2="27.0527"
       gradientUnits="userSpaceOnUse">
      <stop
         stop-color="#09DBF0"
         id="stop5" />
      <stop
         offset="1"
         stop-color="#0B23A9"
         id="stop6" />
    </linearGradient>
    <clipPath
       id="clip0_1008_94177">
      <rect
         width="252"
         height="264"
         fill="#ffffff"
         id="rect6"
         x="0"
         y="0" />
    </clipPath>
  </defs>
</svg>
